<?xml version="1.0" standalone="no"?>
<!DOCTYPE svg PUBLIC "-//W3C//DTD SVG 20010904//EN"
 "http://www.w3.org/TR/2001/REC-SVG-20010904/DTD/svg10.dtd">
<svg version="1.0" xmlns="http://www.w3.org/2000/svg"
 width="700.000000pt" height="700.000000pt" viewBox="0 0 700.000000 700.000000"
 preserveAspectRatio="xMidYMid meet">
<metadata>
Created by potrace 1.14, written by Peter Selinger 2001-2017
</metadata>
<g transform="translate(0.000000,700.000000) scale(0.100000,-0.100000)"
fill="#000000" stroke="none">
<path d="M3385 6399 c-22 -4 -56 -10 -75 -13 -81 -13 -282 -103 -354 -159 -13
-10 -309 -193 -391 -242 -33 -20 -107 -65 -164 -100 -57 -36 -105 -65 -108
-65 -2 0 -9 -5 -16 -10 -7 -6 -55 -37 -107 -69 -264 -162 -879 -542 -979 -605
-290 -181 -437 -424 -446 -736 -3 -104 3 -152 60 -495 36 -209 67 -396 70
-415 3 -19 12 -75 21 -125 8 -49 17 -101 19 -115 2 -14 25 -149 50 -300 25
-151 48 -288 51 -305 2 -16 6 -41 9 -55 3 -14 7 -41 10 -60 3 -19 10 -57 15
-85 5 -27 12 -68 15 -90 6 -43 10 -68 25 -155 5 -30 12 -71 15 -90 3 -19 10
-57 15 -85 5 -27 12 -68 15 -90 5 -39 8 -55 20 -115 2 -14 7 -45 11 -70 3 -24
7 -47 9 -50 1 -3 6 -32 10 -65 3 -32 8 -62 11 -66 2 -3 6 -31 10 -60 3 -30 8
-57 10 -60 1 -3 6 -28 9 -55 19 -140 62 -268 128 -379 58 -98 211 -248 307
-302 81 -46 196 -90 257 -99 21 -3 45 -8 53 -11 22 -9 2985 -11 3034 -2 23 4
57 10 76 13 108 17 279 96 375 174 161 129 283 349 311 557 3 27 23 144 29
175 2 13 7 42 10 65 3 22 10 63 16 90 5 28 11 64 13 80 2 17 9 57 15 90 6 33
20 114 31 180 11 66 22 132 25 147 3 16 7 40 9 55 2 16 9 60 16 98 6 39 14 84
17 100 2 17 25 149 49 295 25 146 47 281 50 300 3 19 16 98 30 176 13 77 26
154 28 170 3 24 32 196 60 359 77 450 89 533 92 631 3 107 -13 224 -36 266 -6
10 -10 24 -10 33 0 21 -53 127 -95 191 -80 121 -188 213 -382 330 -56 33 -207
126 -243 149 -19 13 -120 76 -225 140 -104 65 -243 151 -308 191 -65 41 -122
74 -127 74 -4 0 -10 3 -12 8 -1 4 -79 54 -173 111 -93 57 -192 119 -220 136
-134 86 -478 297 -530 324 -141 76 -366 115 -510 90z m-347 -2020 c155 -38
288 -112 404 -225 l59 -57 57 55 c82 78 130 113 219 157 280 139 554 127 799
-36 45 -30 124 -116 159 -174 176 -288 222 -593 138 -909 -8 -30 -18 -64 -23
-75 -68 -165 -116 -251 -227 -407 -37 -51 -69 -95 -72 -98 -3 -3 -28 -32 -55
-65 -50 -60 -202 -214 -286 -290 -141 -127 -361 -275 -554 -373 -148 -75 -166
-74 -318 6 -153 80 -175 93 -281 164 -367 245 -713 635 -879 988 -30 62 -73
210 -84 285 -14 94 -9 296 10 380 41 185 122 355 234 490 76 91 255 182 397
201 28 3 51 7 53 9 10 9 178 -8 250 -26z"/>
</g>
</svg>
